<svg width="20" height="22" viewBox="0 0 20 22" fill="none" xmlns="http://www.w3.org/2000/svg">
<path d="M11.78 20C11.6044 20.3033 11.3522 20.5552 11.0485 20.7302C10.7449 20.9053 10.4005 20.9974 10.05 20.9974C9.69955 20.9974 9.35522 20.9053 9.05157 20.7302C8.74793 20.5552 8.49566 20.3033 8.32005 20M16.05 7.4C16.05 5.703 15.418 4.075 14.293 2.875C13.167 1.675 11.64 1 10.05 1C8.45905 1 6.93305 1.674 5.80705 2.875C4.68205 4.075 4.05005 5.703 4.05005 7.4C4.05005 14.867 1.05005 17 1.05005 17H19.05C19.05 17 16.05 14.867 16.05 7.4Z" stroke="black" stroke-width="1.5" stroke-linecap="round" stroke-linejoin="round"/>
</svg>
