<svg width="19" height="15" viewBox="0 0 19 15" fill="none" xmlns="http://www.w3.org/2000/svg">
<path d="M1 13.875V13.125C1 11.7326 1.55312 10.3973 2.53769 9.41269C3.52226 8.42812 4.85761 7.875 6.25 7.875C7.64239 7.875 8.97774 8.42812 9.96231 9.41269C10.9469 10.3973 11.5 11.7326 11.5 13.125V13.875" stroke="#7C7C7C" stroke-width="1.5" stroke-linecap="round"/>
<path d="M10 9.375C10 8.38044 10.3951 7.42661 11.0983 6.72335C11.8016 6.02009 12.7554 5.625 13.75 5.625C14.2425 5.625 14.7301 5.722 15.1851 5.91045C15.64 6.09891 16.0534 6.37513 16.4016 6.72335C16.7499 7.07157 17.0261 7.48497 17.2145 7.93994C17.403 8.39491 17.5 8.88254 17.5 9.375V9.75" stroke="#7C7C7C" stroke-width="1.5" stroke-linecap="round"/>
<path d="M6.25 7.875C7.04565 7.875 7.80871 7.55893 8.37132 6.99632C8.93393 6.43371 9.25 5.67065 9.25 4.875C9.25 4.07935 8.93393 3.31629 8.37132 2.75368C7.80871 2.19107 7.04565 1.875 6.25 1.875C5.45435 1.875 4.69129 2.19107 4.12868 2.75368C3.56607 3.31629 3.25 4.07935 3.25 4.875C3.25 5.67065 3.56607 6.43371 4.12868 6.99632C4.69129 7.55893 5.45435 7.875 6.25 7.875ZM13.75 5.625C14.3467 5.625 14.919 5.38795 15.341 4.96599C15.7629 4.54403 16 3.97174 16 3.375C16 2.77826 15.7629 2.20597 15.341 1.78401C14.919 1.36205 14.3467 1.125 13.75 1.125C13.1533 1.125 12.581 1.36205 12.159 1.78401C11.7371 2.20597 11.5 2.77826 11.5 3.375C11.5 3.97174 11.7371 4.54403 12.159 4.96599C12.581 5.38795 13.1533 5.625 13.75 5.625Z" stroke="#7C7C7C" stroke-width="1.5" stroke-linecap="round" stroke-linejoin="round"/>
</svg>
